<svg width="400" height="400" viewBox="0 0 400 400" xmlns="http://www.w3.org/2000/svg">
<defs>
    <filter id="shadow" x="-20%" y="-20%" width="140%" height="140%">
        <feDropShadow dx="2" dy="4" stdDeviation="3" flood-opacity="0.3"/>
    </filter>
    <filter id="glow" x="-50%" y="-50%" width="200%" height="200%">
        <feGaussianBlur stdDeviation="8" result="blur"/>
        <feMerge><feMergeNode in="blur"/><feMergeNode in="SourceGraphic"/></feMerge>
    </filter>
    <linearGradient id="rainbow-body" x1="0%" y1="0%" x2="100%" y2="100%">
        <stop offset="0%" stop-color="#FF6B6B"/><stop offset="25%" stop-color="#FFE66D"/>
        <stop offset="50%" stop-color="#4ECDC4"/><stop offset="75%" stop-color="#45B7D1"/>
        <stop offset="100%" stop-color="#DDA0DD"/>
    </linearGradient>
    <radialGradient id="galaxy-body" cx="30%" cy="30%">
        <stop offset="0%" stop-color="#E6E6FA"/><stop offset="50%" stop-color="#9370DB"/>
        <stop offset="100%" stop-color="#1A0033"/>
    </radialGradient>
    <linearGradient id="holo-body" x1="0%" y1="0%" x2="100%" y2="100%">
        <stop offset="0%" stop-color="#FF00FF"/><stop offset="50%" stop-color="#00FFFF"/>
        <stop offset="100%" stop-color="#FFFF00"/>
    </linearGradient>
    <linearGradient id="sky-gradient" x1="0%" y1="0%" x2="0%" y2="100%">
        <stop offset="0%" stop-color="#87CEEB"/><stop offset="100%" stop-color="#E0F4FF"/>
    </linearGradient>
    <linearGradient id="grass-gradient" x1="0%" y1="0%" x2="0%" y2="100%">
        <stop offset="0%" stop-color="#90EE90"/><stop offset="100%" stop-color="#228B22"/>
    </linearGradient>
    <linearGradient id="sunset-gradient" x1="0%" y1="0%" x2="0%" y2="100%">
        <stop offset="0%" stop-color="#FF6B6B"/><stop offset="50%" stop-color="#FFE66D"/>
        <stop offset="100%" stop-color="#4ECDC4"/>
    </linearGradient>
    <linearGradient id="aurora-gradient" x1="0%" y1="0%" x2="100%" y2="100%">
        <stop offset="0%" stop-color="#0D1B2A"/><stop offset="30%" stop-color="#00FF7F"/>
        <stop offset="70%" stop-color="#FF00FF"/><stop offset="100%" stop-color="#0D1B2A"/>
    </linearGradient>
    <radialGradient id="multiverse-gradient" cx="50%" cy="50%">
        <stop offset="0%" stop-color="#FFD700"/><stop offset="40%" stop-color="#FF00FF"/>
        <stop offset="70%" stop-color="#00FFFF"/><stop offset="100%" stop-color="#000"/>
    </radialGradient>
    <linearGradient id="rift-gradient" x1="0%" y1="0%" x2="100%" y2="100%">
        <stop offset="0%" stop-color="#000"/><stop offset="30%" stop-color="#9400D3"/>
        <stop offset="50%" stop-color="#00FFFF"/><stop offset="70%" stop-color="#9400D3"/>
        <stop offset="100%" stop-color="#000"/>
    </linearGradient>
    <linearGradient id="heaven-gradient" x1="0%" y1="0%" x2="0%" y2="100%">
        <stop offset="0%" stop-color="#FFF"/><stop offset="50%" stop-color="#FFD700" stop-opacity="0.3"/>
        <stop offset="100%" stop-color="#F0F8FF"/>
    </linearGradient>
    <clipPath id="head-clip"><ellipse cx="200" cy="200" rx="110" ry="115"/></clipPath>
</defs>
<rect width="400" height="400" fill="#0D1B2A"/>
<circle cx="103" cy="77" r="1" fill="white" opacity="0.4"/>
<circle cx="206" cy="154" r="2" fill="white" opacity="0.5"/>
<circle cx="309" cy="231" r="1" fill="white" opacity="0.6000000000000001"/>
<circle cx="12" cy="308" r="2" fill="white" opacity="0.7000000000000001"/>
<circle cx="115" cy="385" r="1" fill="white" opacity="0.8"/>
<circle cx="218" cy="62" r="2" fill="white" opacity="0.4"/>
<circle cx="321" cy="139" r="1" fill="white" opacity="0.5"/>
<circle cx="24" cy="216" r="2" fill="white" opacity="0.6000000000000001"/>
<circle cx="127" cy="293" r="1" fill="white" opacity="0.7000000000000001"/>
<circle cx="230" cy="370" r="2" fill="white" opacity="0.8"/>
<circle cx="333" cy="47" r="1" fill="white" opacity="0.4"/>
<circle cx="36" cy="124" r="2" fill="white" opacity="0.5"/>
<circle cx="139" cy="201" r="1" fill="white" opacity="0.6000000000000001"/>
<circle cx="242" cy="278" r="2" fill="white" opacity="0.7000000000000001"/>
<circle cx="345" cy="355" r="1" fill="white" opacity="0.8"/>
<circle cx="48" cy="32" r="2" fill="white" opacity="0.4"/>
<circle cx="151" cy="109" r="1" fill="white" opacity="0.5"/>
<circle cx="254" cy="186" r="2" fill="white" opacity="0.6000000000000001"/>
<circle cx="357" cy="263" r="1" fill="white" opacity="0.7000000000000001"/>
<circle cx="60" cy="340" r="2" fill="white" opacity="0.8"/>
<circle cx="163" cy="17" r="1" fill="white" opacity="0.4"/>
<circle cx="266" cy="94" r="2" fill="white" opacity="0.5"/>
<circle cx="369" cy="171" r="1" fill="white" opacity="0.6000000000000001"/>
<circle cx="72" cy="248" r="2" fill="white" opacity="0.7000000000000001"/>
<circle cx="175" cy="325" r="1" fill="white" opacity="0.8"/>
<circle cx="278" cy="2" r="2" fill="white" opacity="0.4"/>
<circle cx="381" cy="79" r="1" fill="white" opacity="0.5"/>
<circle cx="84" cy="156" r="2" fill="white" opacity="0.6000000000000001"/>
<circle cx="187" cy="233" r="1" fill="white" opacity="0.7000000000000001"/>
<circle cx="290" cy="310" r="2" fill="white" opacity="0.8"/>
<circle cx="393" cy="387" r="1" fill="white" opacity="0.4"/>
<circle cx="96" cy="64" r="2" fill="white" opacity="0.5"/>
<circle cx="199" cy="141" r="1" fill="white" opacity="0.6000000000000001"/>
<circle cx="302" cy="218" r="2" fill="white" opacity="0.7000000000000001"/>
<circle cx="5" cy="295" r="1" fill="white" opacity="0.8"/>
<circle cx="108" cy="372" r="2" fill="white" opacity="0.4"/>
<circle cx="211" cy="49" r="1" fill="white" opacity="0.5"/>
<circle cx="314" cy="126" r="2" fill="white" opacity="0.6000000000000001"/>
<circle cx="17" cy="203" r="1" fill="white" opacity="0.7000000000000001"/>
<circle cx="120" cy="280" r="2" fill="white" opacity="0.8"/>

<ellipse cx="115" cy="140" rx="45" ry="50" fill="#808080" filter="url(#shadow)"/>
<ellipse cx="115" cy="140" rx="30" ry="35" fill="#FFB6C1"/>
<ellipse cx="115" cy="145" rx="18" ry="22" fill="#FF9999"/>
<ellipse cx="285" cy="140" rx="45" ry="50" fill="#808080" filter="url(#shadow)"/>
<ellipse cx="285" cy="140" rx="30" ry="35" fill="#FFB6C1"/>
<ellipse cx="285" cy="145" rx="18" ry="22" fill="#FF9999"/>
<ellipse cx="200" cy="200" rx="110" ry="115" fill="#808080" filter="url(#shadow)"/>
<ellipse cx="180" cy="140" rx="50" ry="30" fill="#A0A0A0" opacity="0.3"/>
<g clip-path="url(#head-clip)"><text x="130" y="130" font-size="16" fill="#FF69B4" opacity="0.4">♥</text><text x="221" y="137" font-size="16" fill="#FF69B4" opacity="0.4">♥</text><text x="172" y="144" font-size="16" fill="#FF69B4" opacity="0.4">♥</text><text x="263" y="151" font-size="16" fill="#FF69B4" opacity="0.4">♥</text><text x="214" y="158" font-size="16" fill="#FF69B4" opacity="0.4">♥</text><text x="165" y="165" font-size="16" fill="#FF69B4" opacity="0.4">♥</text><text x="256" y="172" font-size="16" fill="#FF69B4" opacity="0.4">♥</text></g>
<ellipse cx="200" cy="235" rx="70" ry="60" fill="#FFDAB9"/>
<ellipse cx="200" cy="250" rx="55" ry="40" fill="#DEB887" opacity="0.3"/>
<ellipse cx="162" cy="185" rx="22" ry="24" fill="#000" opacity="0.08"/>
<ellipse cx="238" cy="185" rx="22" ry="24" fill="#000" opacity="0.08"/>
<ellipse cx="162" cy="185" rx="18" ry="20" fill="#E6E6FA" filter="url(#glow)"/>
<circle cx="162" cy="185" r="10" fill="#9370DB"/>
<circle cx="162" cy="185" r="4" fill="#FFF"/>
<ellipse cx="238" cy="185" rx="18" ry="20" fill="#E6E6FA" filter="url(#glow)"/>
<circle cx="238" cy="185" r="10" fill="#9370DB"/>
<circle cx="238" cy="185" r="4" fill="#FFF"/>
<g>
            <ellipse cx="200" cy="230" rx="25" ry="18" fill="#8B4513"/>
            <ellipse cx="200" cy="230" rx="22" ry="15" fill="#A0522D"/>
            <ellipse cx="192" cy="230" rx="5" ry="7" fill="#5D2E0C"/>
            <ellipse cx="208" cy="230" rx="5" ry="7" fill="#5D2E0C"/>
        </g>
<path d="M178 260 Q200 268 222 260" stroke="#5D2E0C" stroke-width="2" fill="none"/>
<rect x="155" y="55" width="90" height="18" rx="3" fill="#8B0000"/><rect x="145" y="70" width="110" height="8" fill="#8B0000"/>
<text x="110" y="110" font-size="24" fill="#FFD700">✦</text><text x="290" y="110" font-size="24" fill="#FFD700">✦</text><text x="110" y="290" font-size="24" fill="#FFD700">✦</text><text x="290" y="290" font-size="24" fill="#FFD700">✦</text><text x="200" y="70" font-size="24" fill="#FFD700">✦</text>
<g transform="translate(325, 15)">
            <rect width="65" height="22" rx="4" fill="#A0A0A0" opacity="0.9"/>
            <text x="32" y="15" font-size="8" fill="#FFF" text-anchor="middle" font-family="sans-serif" font-weight="bold">COMMON</text>
        </g>
        <g transform="translate(10, 15)">
            <rect width="45" height="22" rx="4" fill="#333" opacity="0.8"/>
            <text x="22" y="15" font-size="9" fill="#FFF" text-anchor="middle" font-family="sans-serif">Gen 1</text>
        </g>
</svg>